<?xml version="1.0" encoding="UTF-8"?>
<svg width="236px" height="42px" viewBox="0 0 236 42" version="1.1" xmlns="http://www.w3.org/2000/svg" xmlns:xlink="http://www.w3.org/1999/xlink">
    <!-- Generator: Sketch 64 (93537) - https://sketch.com -->
    <title>PlockMates</title>
    <desc>Created with Sketch.</desc>
    <g id="Logotypförslag" stroke="none" stroke-width="1" fill="none" fill-rule="evenodd">
        <path d="M4.9914939,41.9520296 C5.75751431,42.053785 6.44880102,41.9936568 7.06535403,41.771645 C7.68190704,41.5496332 8.21438464,40.8373454 8.66278683,39.6347815 C9.11118902,38.3397127 9.90523457,35.5460643 11.0449235,31.2538363 C12.7264317,31.0688265 14.730229,30.6016767 17.0563153,29.8523869 C19.3824017,29.1030971 21.6664503,28.2011742 23.9084613,27.1466181 C26.1504722,26.0920621 27.9814478,25.0005041 29.4013881,23.8719442 C32.1104847,21.6518263 33.9601437,19.4733355 34.9503652,17.336472 C35.9405867,15.1996085 36.2301798,13.1783762 35.8191445,11.2727749 C35.4081091,9.36717371 34.4505836,7.64658232 32.9465679,6.11100075 C31.4425522,4.57541918 29.5555264,3.29885137 27.2854903,2.28129732 C25.0154542,1.26374327 22.521217,0.579206903 19.8027787,0.227688231 C17.0843405,-0.123830441 14.3098519,-0.0683274931 11.4793131,0.394197076 C8.64877426,0.856721645 5.91632342,1.79102127 3.28196056,3.19709596 C1.28283413,4.58466967 0.194524645,6.39314073 0.0170321118,8.62250916 C-0.160460422,10.8518776 1.04929132,12.4660883 3.64628734,13.4651414 C6.4301176,11.4670353 9.0177719,10.0794615 11.4092502,9.30242027 C13.8007286,8.525379 16.4444332,8.15535934 19.340364,8.19236131 C22.2362948,8.22936327 24.5203434,8.63638489 26.1925099,9.41342617 C27.8646764,10.1904674 28.7801642,11.4207828 28.9389734,13.1043722 C29.0977825,14.7879617 27.9347393,16.809194 25.4498438,19.1680693 C22.9649483,21.5269446 18.7144693,23.4741731 12.6984065,25.0097546 C13.6512612,21.6980787 14.4780027,18.9136808 15.1786312,16.6565609 C15.8792596,14.399441 16.3043075,13.0303683 16.4537749,12.5493427 C16.5845589,11.6797966 16.1922069,11.0507631 15.2767191,10.6622425 C14.3612313,10.2737219 13.1234544,10.1950927 11.5633885,10.426355 C10.0033225,10.6576173 8.72817882,11.2265225 7.73795732,12.1330706 L7.73795732,12.1330706 L4.6832174,26.8968549 C3.59957877,27.1558686 2.88493778,27.6183932 2.53929443,28.2844286 C2.19365107,28.950464 2.1376008,29.5702469 2.37114361,30.1437773 C2.60468642,30.7173078 3.06710117,31.1058285 3.75838788,31.3093393 C2.8615835,36.4711135 2.35713104,39.4775232 2.24503049,40.3285684 C3.30998569,41.3091204 4.2254735,41.8502742 4.9914939,41.9520296 Z M35.7123288,40.9782896 C37.3926941,41.0892538 38.369863,40.7748553 38.6438356,40.0350942 C40.8356164,29.3640398 43.6210046,19.3125354 47,9.88058091 C46.9634703,9.0298556 46.3424658,8.28547096 45.1369863,7.64742698 C43.9315068,7.009383 42.6118721,6.84293674 41.1780822,7.14808821 C39.7442922,7.45323968 38.8538813,8.1144012 38.5068493,9.13157276 C35.9315068,19.4142525 34.0958904,29.2438286 33,38.620301 C33.1278539,40.0998233 34.0319635,40.8858195 35.7123288,40.9782896 Z M52.6442543,41 C53.6377343,41 54.706194,40.9162621 55.8496333,40.7487864 C58.2302363,40.2463592 60.2031377,39.2787217 61.7683374,37.8458738 C63.3335371,36.4130259 64.4301141,34.8359628 65.0580685,33.1146845 C65.6860228,31.3934061 66,29.7419094 66,28.1601942 C66,25.7038835 65.3345558,23.5080906 64.0036675,21.5728155 C62.4478403,19.4514563 60.49837,18.2977346 58.1552567,18.1116505 C57.2180114,18.0372168 56.3932355,18 55.6809291,18 C55.0810921,18 54.4718826,18.0186084 53.8533007,18.0558252 C52.391198,18.1674757 51.0415648,18.5582524 49.804401,19.2281553 C48.5672372,19.8980583 47.4894051,20.7633495 46.5709046,21.8240291 C45.6524042,22.8847087 44.9307253,24.0384304 44.405868,25.2851942 C43.4873676,27.5182039 43.0234311,29.1650485 43.0140587,30.2257282 C43.007498,30.9682039 43.0032335,31.4736084 43.0012653,31.7419417 L43,31.9563107 C43,33.8729773 43.4451915,35.5802994 44.3355746,37.0782767 C45.2259576,38.576254 46.4443765,39.6043689 47.9908313,40.1626214 C49.5372861,40.7208738 51.0884271,41 52.6442543,41 Z M54.347561,37 C53.5243902,37 52.847561,36.7281553 52.3170732,36.184466 C51.4390244,35.2964401 51,33.9734628 51,32.215534 C51,30.7294498 51.3109756,29.2433657 51.9329268,27.7572816 C52.4634146,26.4343042 53.1722561,25.3288026 54.0594512,24.4407767 C54.9466463,23.5527508 55.9573171,23.0724919 57.0914634,23 C57.9695122,23.0724919 58.6463415,23.4757282 59.1219512,24.2097087 C59.597561,24.9436893 59.8628049,25.6640777 59.9176829,26.3708738 C59.972561,27.0776699 60,27.5941748 60,27.9203883 C60,30.0226537 59.5335366,31.9889968 58.6006098,33.8194175 C57.5030488,35.9398058 56.0853659,37 54.347561,37 Z M79.0661479,42 C81.8261997,41.9248366 84.1958495,40.7973856 86.1750973,38.6176471 C86.8106355,37.997549 87.1329442,37.5418709 87.1420233,37.2506127 C87.1511025,36.9593546 87.155642,36.8043301 87.155642,36.7855392 C87.155642,36.2593954 86.9922179,35.8037173 86.6653696,35.4185049 C86.3385214,35.0332925 86.0071336,34.7702206 85.6712062,34.6292892 C85.3352789,34.4883578 85.0674449,34.4178922 84.8677043,34.4178922 C84.7224384,34.4178922 84.5862516,34.4554739 84.459144,34.5306373 C83.5149157,35.5265523 82.5706874,36.348652 81.6264591,36.9969363 C80.6822309,37.6452206 79.7470817,37.9693627 78.8210117,37.9693627 C77.3501946,37.9693627 76.2607004,37.5418709 75.5525292,36.6868873 C74.844358,35.8319036 74.4766537,35.0473856 74.4494163,34.3333333 C74.422179,33.619281 74.4085603,33.2246732 74.4085603,33.1495098 C74.4085603,31.8905229 74.6446174,30.6033497 75.1167315,29.2879902 C75.6251621,27.8786765 76.3424125,26.6384804 77.2684825,25.567402 C78.539559,24.0829248 79.9649805,23.3406863 81.5447471,23.3406863 C81.9442283,23.3406863 82.2983139,23.4064542 82.6070039,23.5379902 C83.1699092,23.8010621 83.4967575,24.097018 83.5875486,24.4258578 C83.6783398,24.7546977 83.7237354,24.9848856 83.7237354,25.1164216 C83.7237354,26.2626634 82.8884565,27.2867647 81.2178988,28.1887255 C80.8002594,28.7336601 80.5914397,29.2222222 80.5914397,29.6544118 C80.5914397,30.1805556 80.8229572,30.6174428 81.2859922,30.9650735 C81.7490272,31.3127042 82.3164721,31.4865196 82.9883268,31.4865196 C83.387808,31.4865196 83.769131,31.4019608 84.1322957,31.2328431 C85.2762646,30.5 86.1977951,29.5933415 86.8968872,28.5128676 C87.5959792,27.4323938 87.9636835,26.3002451 88,25.1164216 C88,23.688317 87.618677,22.5044935 86.8560311,21.564951 C86.0933852,20.6254085 85.1491569,19.963031 84.0233463,19.5778186 C82.8975357,19.1926062 81.7535668,19 80.5914397,19 C78.7756161,19 76.9597925,19.3946078 75.1439689,20.1838235 C71.8391699,21.630719 69.4876783,24.0829248 68.0894942,27.5404412 C67.3631647,29.438317 67,31.185866 67,32.7830882 C67,33.6474673 67.1089494,34.4648693 67.3268482,35.2352941 C67.92607,37.4338235 69.2062257,39.1109069 71.1673152,40.2665441 C73.1284047,41.4221814 75.5797665,42 78.5214008,42 L78.5214008,42 L79.0661479,42 Z M90.7921028,40.6951129 C91.6711163,41.0822711 92.5730208,41.1007072 93.4978163,40.7504212 C94.4226118,40.4001353 94.9765735,39.9392327 95.1597013,39.3677135 L95.1597013,39.3677135 L96.2035299,35.0260111 L105.707864,40.4462255 C106.568564,40.9808725 107.333123,41.0177447 108.00154,40.5568422 C108.669956,40.0959396 109.063681,39.3631044 109.182714,38.3583368 C109.301747,37.3535692 108.967539,36.5008994 108.180089,35.8003274 L108.180089,35.8003274 L98.6482863,28.3613596 C107.090479,23.9551308 111.471812,21.3418131 111.792286,20.5214065 C112.112759,19.7009999 112.062399,18.8805933 111.641205,18.0601867 C111.220011,17.2397801 110.464609,16.5576442 109.374998,16.0137792 C108.285388,15.4699141 107.117948,15.5851398 105.872679,16.3594561 L105.872679,16.3594561 L99.4174231,21.1159709 L103.098292,11.1881291 C103.299733,10.2478878 102.896852,9.43209019 101.889649,8.74073631 C100.882446,8.04938242 99.6463329,7.84197625 98.1813103,8.11851781 C96.7162878,8.39505936 95.855587,8.97579663 95.599208,9.8607296 L95.599208,9.8607296 L91.5063013,26.1766813 C90.187781,26.3979146 89.3820185,27.195276 89.089014,28.5687658 C88.7960095,29.9422555 89.2263599,31.108339 90.3800652,32.0670164 L90.3800652,32.0670164 L89.5285208,38.8699387 C89.4918952,39.6995633 89.9130892,40.3079548 90.7921028,40.6951129 Z M115.633412,42 C117.816017,42 119.980126,40.4538476 122.125738,37.3615427 C123.217041,35.7781335 124.178867,34.1108969 125.011216,32.3598326 C126.638922,28.9322176 128.275876,24.3962161 129.922078,18.7518283 C130.828414,21.8441332 131.350945,24.8898672 131.489669,27.8890304 C131.628394,30.8881936 131.743998,32.92334 131.836482,33.9944697 C131.928965,35.0655994 132.164797,36.0389303 132.543979,36.9144624 C132.92316,37.7899945 133.464187,38.3954157 134.16706,38.7307259 C134.869933,39.066036 135.600551,39.2336911 136.358914,39.2336911 C136.87682,39.2336911 137.450216,39.1778061 138.079103,39.066036 L138.079103,39.066036 L138.079103,38.8145534 C138.079103,35.7222485 139.327627,31.6333273 141.824675,26.5477897 C142.989965,24.1447335 144.303227,21.8068765 145.764463,19.5342187 C145.246556,21.8441332 144.816509,24.1307622 144.474321,26.3941059 C144.132133,28.6574495 143.882428,31.2188466 143.725207,34.0782973 C143.567985,36.9377479 144.118261,39.0287793 145.376033,40.3513917 C146.633806,41.6553757 148.071921,42.0791705 149.690378,41.6227761 C151.308835,41.1663817 152.229044,40.1744224 152.451004,38.6468983 C151.378198,37.6037111 150.841795,36.1041295 150.841795,34.1481535 C150.841795,32.1176642 151.452184,28.1777697 152.672963,22.3284701 C153.893743,16.4791705 155.669421,10.3970166 158,4.08200837 C156.964187,3.26236129 156.043979,2.69885392 155.239374,2.39148627 C154.43477,2.08411861 153.46832,1.96769147 152.340024,2.04220484 C151.211728,2.11671821 149.584022,3.37413134 147.456907,5.81444424 C145.329791,8.25475714 141.815427,13.8339458 136.913813,22.5520102 C136.747344,20.0558123 136.386659,17.5037293 135.831759,14.8957613 C135.27686,12.2877933 134.768201,10.0337639 134.305785,8.13367291 C133.843369,6.23358195 133.371704,4.85508459 132.890791,3.99818083 C132.409878,3.14127706 131.707005,2.56845552 130.782172,2.27971621 C129.85734,1.9909769 128.752165,1.9257777 127.466647,2.08411861 C126.181129,2.24245952 125.205431,2.71282518 124.539551,3.49521557 C124.410075,5.45119156 124.012397,9.11166091 123.346517,14.4766236 C122.680638,19.8415863 121.330382,24.7594688 119.29575,29.2302711 C117.261118,33.7010733 114.495868,36.2158996 111,36.7747499 C111,38.4699291 111.536403,39.8484264 112.609209,40.910242 C113.312082,41.6367473 114.32015,42 115.633412,42 Z M172.182665,40.3542655 C173.116915,40.9236228 174.03248,41.1164696 174.929361,40.932806 C175.844926,40.7675087 176.45686,40.5333376 176.765163,40.2302925 C177.073465,39.9272475 177.302357,39.5920614 177.451837,39.2247341 C177.414467,35.2208667 178.563594,28.9579365 180.89922,20.4359434 C181.142125,19.9033189 180.945933,19.4028354 180.310643,18.9344931 C179.675352,18.4661508 178.633663,18.172289 177.185575,18.0529077 C175.737487,17.9335263 174.691127,18.0161749 174.046494,18.3008536 C173.401862,18.5855322 172.958093,19.1962138 172.715188,20.1328984 C171.239072,18.7737875 169.137009,18.094232 166.408998,18.094232 C163.344657,18.094232 160.775469,19.2696793 158.701433,21.6205739 C157.561648,22.9245858 156.660096,24.4995015 155.996778,26.3453211 C155.333461,28.1911407 155.001802,29.9589033 155.001802,31.6486088 C154.945747,34.8259899 156.197642,37.4156472 158.757488,39.4175809 C160.270973,40.3726319 162.046049,40.8501573 164.082715,40.8501573 C166.661246,40.831791 168.903446,39.9318391 170.809317,38.1503018 C171.014852,38.9951546 171.472635,39.7298091 172.182665,40.3542655 Z M165.561745,35.9723115 C164.127054,36.0975689 163.026801,35.797846 162.260986,35.073143 C161.495171,34.34844 161.078335,33.2121773 161.010478,31.6643548 C160.942621,30.1165324 161.204355,28.6179181 161.795681,27.1685121 C162.387006,25.7191061 163.186749,24.6231047 164.194911,23.8805078 C165.203072,23.1379109 166.443886,22.8650289 167.917353,23.0618618 C169.390819,23.2586947 170.418368,24.0728672 171,25.5043793 C170.205104,29.1189474 169.759186,31.8925021 169.662247,33.8250434 C168.382658,35.1134043 167.015824,35.8291603 165.561745,35.9723115 Z M184.662442,40.9286762 C185.940047,41.1416139 187.198584,40.8777563 188.438053,40.1371032 C187.789715,38.3039869 187.732509,35.933897 188.266434,33.0268337 C188.800359,30.1197704 190.020758,25.7591755 191.927632,19.9450489 C193.224306,20.1487285 194.168209,20.0700341 194.75934,19.7089657 C195.350471,19.3478974 195.731846,18.820182 195.903465,18.1258198 C196.075083,17.4314575 196.017877,16.6491427 195.731846,15.7788754 L195.731846,15.7788754 L193.443597,15.5844539 C194.111003,13.0292009 194.702134,11.0664702 195.21699,9.69626204 C195.464883,9.14077224 195.360005,8.65934774 194.902356,8.25198855 C194.444706,7.84462937 193.791601,7.52985181 192.943043,7.30765589 C192.094484,7.08545997 191.198253,6.98362017 190.25435,7.0021365 C189.310447,7.02065283 188.480957,7.18267069 187.765879,7.48819008 C187.050802,7.79370947 186.588385,8.27976305 186.378629,8.94635081 C185.978185,10.4091406 185.491932,12.5385182 184.91987,15.3344835 C184.366876,15.3715162 183.842486,15.417807 183.346699,15.473356 C182.622087,15.5659376 182.054792,15.8529407 181.644814,16.3343652 C181.234836,16.8157897 181.020312,17.3759086 181.001244,18.0147218 C180.982175,18.6535351 181.182397,19.2506866 181.601909,19.8061764 C182.154902,19.7506275 182.898583,19.722853 183.832952,19.722853 C182.707896,24.0001245 181.930845,27.7080189 181.501798,30.8465363 C181.072751,33.9850537 181.172862,36.3968052 181.802131,38.081791 C182.431399,39.7667767 183.384836,40.7157384 184.662442,40.9286762 Z M204.058966,42 L204.68671,41.9903682 C207.882987,41.898545 210.491443,40.5946556 212.512078,38.0787 C212.897836,37.6379486 213.090714,37.1834238 213.090714,36.7151255 C213.090714,36.2468272 212.851912,35.7693465 212.374307,35.2826836 C211.896703,34.7960206 211.217035,34.5435069 210.335303,34.5251422 C209.618896,35.5351974 208.796865,36.3937443 207.86921,37.1007829 C206.941555,37.8078215 205.85776,38.1705232 204.617825,38.1888878 C203.37789,38.2072524 202.312464,37.7710923 201.421548,36.8804072 C200.530631,35.9897222 200.103543,34.5435069 200.140281,32.5417611 C202.032331,33.3681699 204.365245,33.3681699 207.139026,32.5417611 C209.269877,31.8439048 210.913939,30.7925292 212.071212,29.3876343 C213.228485,27.9827394 213.862229,26.67885 213.972446,25.4759661 C214.082662,24.2730822 213.862229,23.2171154 213.311147,22.3080657 C212.760065,21.3990161 211.804856,20.6001543 210.44552,19.9114803 C209.086183,19.2228063 207.230873,18.9243809 204.879589,19.0162041 C202.528305,19.1080273 200.296421,20.0492151 198.18394,21.8397674 C196.071458,23.6303198 194.61109,25.5264688 193.802836,27.5282145 C192.976212,30.0258055 192.787926,32.4728937 193.237976,34.8694792 C193.688027,37.2660647 194.914185,39.0749817 196.91645,40.2962302 C198.918716,41.5174787 201.508802,42.0821914 204.68671,41.9903682 L204.058966,42 Z M204.674009,28.9239544 C203.440529,29.1166033 202.215859,28.9432193 201,28.4038023 C202.39207,25.1480355 204.321586,23.3467681 206.788546,23 C207.722467,23 208.39207,23.3226869 208.797357,23.9680608 C209.202643,24.6134347 209,25.5718631 208.189427,26.843346 C207.096916,28.0185044 205.92511,28.7120406 204.674009,28.9239544 Z M224.035578,41 C227.576451,41 230.455739,40.0283768 232.673443,38.0851305 C234.015248,36.922815 234.68615,35.4517594 234.68615,33.6719637 C234.68615,31.7650397 233.717069,30.23042 231.778907,29.0681044 C230.847099,28.523269 229.225752,27.5516459 226.914867,26.153235 C224.734435,24.9909194 223.592969,23.8286039 223.49047,22.6662883 C223.387971,21.5039728 224.166031,20.922815 225.824651,20.922815 C226.793731,20.922815 227.641677,21.1589103 228.368488,21.631101 C228.964845,22.030647 229.263024,22.5437003 229.263024,23.1702611 C229.263024,23.7968218 228.9928,24.3643587 228.452351,24.8728717 C229.085981,25.3632236 229.747565,25.6538025 230.437103,25.7446084 C231.126641,25.8354143 231.639136,25.8808173 231.974587,25.8808173 C233.689115,25.8808173 234.844557,25.4267877 235.440915,24.5187287 C235.813638,23.9920545 236,23.4108967 236,22.7752554 C236,21.0681044 235.263871,19.7604994 233.791614,18.8524404 C231.81618,17.6174801 229.272342,17 226.160102,17 C225.638289,17 225.09784,17.0181612 224.538755,17.0544835 C222.581957,17.1634506 220.811521,17.6901249 219.227446,18.6345062 C217.643371,19.5788876 216.702245,21.0181612 216.404066,22.9523269 C216.105887,24.8864926 216.739517,26.3893303 218.304956,27.46084 C218.975858,27.8967083 219.735282,28.291714 220.583227,28.645857 C221.431173,29 222.535366,29.5856981 223.895807,30.4029512 C226.188056,31.7832009 227.33418,32.9818388 227.33418,33.9988649 C227.33418,34.3257662 227.241,34.661748 227.054638,35.0068104 C226.626006,35.8240636 225.866582,36.2826334 224.776366,36.3825199 C223.68615,36.4824064 222.768319,36.2326901 222.022872,35.6333712 C221.35197,35.0885358 221.016518,34.4801362 221.016518,33.8081725 C221.016518,33.5902384 221.044473,33.3723042 221.100381,33.15437 C221.39856,32.2281498 221.939009,31.5743473 222.721728,31.1929625 C222.144007,30.3212259 221.519695,29.8172531 220.848793,29.6810443 C220.177891,29.5448354 219.656078,29.476731 219.283355,29.476731 C218.649725,29.476731 218.006777,29.5856981 217.354511,29.8036322 C216.329521,30.1486947 215.514189,30.6980704 214.908513,31.4517594 C214.302838,32.2054484 214,33.0726447 214,34.0533485 L214,34.0533485 L214.027954,34.5709421 C214.270224,36.1509648 214.908513,37.4131669 215.942821,38.3575482 C216.977128,39.3019296 218.202457,39.9784336 219.618806,40.3870602 C221.035155,40.7956867 222.451504,41 223.867853,41 L223.867853,41 L224.035578,41 Z" id="PlockMates" fill="#F47945" fill-rule="nonzero"></path>
    </g>
</svg>